<?xml version="1.0" encoding="utf-8"?>
<!-- Generator: Adobe Illustrator 24.0.0, SVG Export Plug-In . SVG Version: 6.00 Build 0)  -->
<svg version="1.1" id="Layer_1" xmlns="http://www.w3.org/2000/svg" xmlns:xlink="http://www.w3.org/1999/xlink" x="0px" y="0px"
	 viewBox="0 0 584 471" style="enable-background:new 0 0 584 471;" xml:space="preserve">
<style type="text/css">
	.st0{fill:#CF3339;}
	.st1{fill:none;stroke:#CF3339;stroke-width:0.165;stroke-miterlimit:10;}
	.st2{fill:#FFFFFF;}
</style>
<g>
	<path class="st0" d="M48.9,394.3c0,14.7,12,26.7,26.8,26.7c7.4,0,14.1-3,19-7.8l28.5,28.3c-12.2,12-29,19.5-47.5,19.5
		c-37,0-67.1-29.9-67.1-66.7s30-66.7,67.1-66.7v40C60.9,367.6,48.9,379.6,48.9,394.3"/>
	<path class="st1" d="M48.9,394.3c0,14.7,12,26.7,26.8,26.7c7.4,0,14.1-3,19-7.8l28.5,28.3c-12.2,12-29,19.5-47.5,19.5
		c-37,0-67.1-29.9-67.1-66.7s30-66.7,67.1-66.7v40C60.9,367.6,48.9,379.6,48.9,394.3z"/>
	<path class="st0" d="M105.2,300.9L105.2,300.9c0,14.7-12,26.7-26.8,26.7v40c37,0,67.1-29.9,67.1-66.7l0,0c0-14.7,12-26.7,26.8-26.7
		v-40C135.3,234.2,105.2,264.1,105.2,300.9"/>
	<path class="st1" d="M105.2,300.9L105.2,300.9c0,14.7-12,26.7-26.8,26.7v40c37,0,67.1-29.9,67.1-66.7l0,0c0-14.7,12-26.7,26.8-26.7
		v-40C135.3,234.2,105.2,264.1,105.2,300.9z"/>
	<path class="st0" d="M201.8,207.5c0-14.7-12-26.7-26.8-26.7c-7.4,0-14.1,3-19,7.8l-28.5-28.3c12.1-12.1,28.9-19.5,47.4-19.5
		c37,0,67.1,29.9,67.1,66.7s-30,66.7-67.1,66.7v-40C189.8,234.2,201.8,222.3,201.8,207.5"/>
	<path class="st1" d="M201.8,207.5c0-14.7-12-26.7-26.8-26.7c-7.4,0-14.1,3-19,7.8l-28.5-28.3c12.1-12.1,28.9-19.5,47.4-19.5
		c37,0,67.1,29.9,67.1,66.7s-30,66.7-67.1,66.7v-40C189.8,234.2,201.8,222.3,201.8,207.5z"/>
	<path class="st0" d="M242,7.5h-67c-37,0-67.1,29.9-67.1,66.7s30,66.7,67.1,66.7c37,0,67.1-29.9,67.1-66.7c0-9.5-2-18.5-5.6-26.7
		h5.6v-40H242z M175,100.8c-14.8,0-26.8-11.9-26.8-26.7s12-26.7,26.8-26.7s26.8,12,26.8,26.7S189.8,100.8,175,100.8z"/>
	<path class="st1" d="M242,7.5h-67c-37,0-67.1,29.9-67.1,66.7s30,66.7,67.1,66.7c37,0,67.1-29.9,67.1-66.7c0-9.5-2-18.5-5.6-26.7
		h5.6v-40H242z"/>
	<path class="st2" d="M179,443.1l5.5,2.8c-1.8,3.5-3.9,6.3-6.2,8.5c-2.3,2.1-5,3.8-7.9,4.9s-6.2,1.7-9.9,1.7c-8.2,0-14.6-2.7-19.2-8
		c-4.6-5.3-6.9-11.4-6.9-18.1c0-6.3,2-12,5.9-17c5-6.3,11.6-9.5,19.9-9.5c8.6,0,15.4,3.2,20.5,9.7c3.6,4.6,5.5,10.3,5.6,17.1h-45.2
		c0.1,5.8,2,10.6,5.6,14.3c3.6,3.7,8.1,5.6,13.4,5.6c2.6,0,5-0.4,7.5-1.3c2.4-0.9,4.5-2.1,6.2-3.5C175.2,448.8,177,446.4,179,443.1
		 M179,429.7c-0.9-3.4-2.1-6.2-3.8-8.2c-1.6-2.1-3.8-3.7-6.5-5s-5.6-1.9-8.6-1.9c-4.9,0-9.2,1.6-12.7,4.7c-2.6,2.3-4.5,5.7-5.9,10.3
		H179V429.7z"/>
	<path class="st2" d="M198.2,409.7h6.5v9c2.6-3.4,5.5-6,8.6-7.7s6.6-2.6,10.3-2.6c3.8,0,7.1,1,10,2.8c2.9,1.9,5.1,4.5,6.4,7.7
		c1.4,3.2,2.1,8.2,2.1,15v25.7h-6.5v-23.9c0-5.8-0.2-9.6-0.7-11.5c-0.7-3.3-2.2-5.8-4.3-7.5s-4.9-2.5-8.3-2.5
		c-3.9,0-7.4,1.3-10.5,3.9s-5.1,5.8-6.1,9.6c-0.6,2.5-0.9,7-0.9,13.6v18.3h-6.5v-49.9H198.2z"/>
	<polygon class="st2" points="261.5,391.1 268,391.1 268,409.7 278.2,409.7 278.2,415.3 268,415.3 268,459.7 261.5,459.7 
		261.5,415.3 252.7,415.3 252.7,409.7 261.5,409.7 	"/>
	<path class="st2" d="M285.5,409.7h6.6v7.3c2-2.9,4.1-5,6.2-6.5c2.2-1.4,4.5-2.1,6.8-2.1c1.8,0,3.7,0.6,5.7,1.7l-3.4,5.4
		c-1.4-0.6-2.5-0.9-3.4-0.9c-2.2,0-4.2,0.9-6.2,2.6c-2,1.8-3.5,4.5-4.6,8.2c-0.8,2.8-1.2,8.6-1.2,17.3v16.9h-6.6v-49.9H285.5z"/>
	<path class="st2" d="M339.8,408.4c7.7,0,14.2,2.8,19.3,8.4c4.6,5.1,6.9,11.1,6.9,18.1s-2.4,13.1-7.3,18.3
		c-4.9,5.2-11.2,7.8-18.9,7.8c-7.7,0-14-2.6-18.9-7.8c-4.9-5.2-7.3-11.3-7.3-18.3c0-6.9,2.3-12.9,6.9-18
		C325.6,411.2,332,408.4,339.8,408.4 M339.8,414.7c-5.4,0-10,2-13.9,5.9c-3.9,4-5.8,8.7-5.8,14.3c0,3.6,0.9,7,2.6,10.1
		c1.8,3.1,4.1,5.5,7.1,7.2s6.3,2.6,9.9,2.6s6.9-0.9,9.9-2.6s5.4-4.1,7.1-7.2c1.8-3.1,2.6-6.5,2.6-10.1c0-5.6-1.9-10.4-5.8-14.3
		C349.8,416.7,345.2,414.7,339.8,414.7"/>
	<path class="st2" d="M52.2,275.2v41.6h-3.8v-5.2c-1.6,2-3.5,3.4-5.5,4.4s-4.2,1.5-6.6,1.5c-4.3,0-7.9-1.5-10.9-4.6
		s-4.5-6.8-4.5-11.2c0-4.3,1.5-8,4.6-11.1s6.7-4.6,11-4.6c2.5,0,4.7,0.5,6.7,1.6s3.8,2.6,5.3,4.7v-17.1L52.2,275.2L52.2,275.2z
		 M36.7,289.7c-2.2,0-4.2,0.5-6,1.6s-3.3,2.5-4.4,4.4s-1.6,3.9-1.6,6.1c0,2.1,0.5,4.1,1.6,6.1c1.1,1.9,2.6,3.4,4.4,4.5
		s3.8,1.6,5.9,1.6c2.1,0,4.1-0.5,6-1.6s3.4-2.5,4.4-4.3s1.5-3.9,1.5-6.1c0-3.5-1.1-6.4-3.4-8.7C42.9,290.9,40.1,289.7,36.7,289.7"/>
	<path class="st2" d="M86.4,306.8l3.3,1.7c-1.1,2.1-2.3,3.8-3.7,5.1c-1.4,1.3-3,2.3-4.7,2.9c-1.8,0.7-3.7,1-6,1
		c-4.9,0-8.8-1.6-11.5-4.8c-2.8-3.2-4.2-6.8-4.2-10.9c0-3.8,1.2-7.2,3.5-10.2c3-3.8,7-5.7,12-5.7c5.1,0,9.2,1.9,12.3,5.8
		c2.2,2.7,3.3,6.2,3.3,10.3H63.5c0.1,3.5,1.2,6.3,3.4,8.6c2.2,2.2,4.8,3.3,8,3.3c1.5,0,3-0.3,4.5-0.8s2.7-1.2,3.7-2.1
		C84.1,310.2,85.2,308.8,86.4,306.8 M86.4,298.7c-0.5-2.1-1.3-3.7-2.3-4.9c-1-1.2-2.3-2.2-3.9-3s-3.3-1.1-5.1-1.1
		c-3,0-5.5,0.9-7.6,2.8c-1.6,1.4-2.7,3.4-3.5,6.2H86.4z"/>
	<path class="st2" d="M174.3,315c7.7,0,14.2,2.8,19.3,8.4c4.6,5.1,6.9,11.1,6.9,18.1s-2.4,13.1-7.3,18.3c-4.9,5.2-11.2,7.8-18.9,7.8
		s-14-2.6-18.9-7.8c-4.9-5.2-7.3-11.3-7.3-18.3c0-6.9,2.3-12.9,6.9-18C160.1,317.8,166.5,315,174.3,315 M174.3,321.3
		c-5.4,0-10,2-13.9,5.9c-3.9,4-5.8,8.7-5.8,14.3c0,3.6,0.9,7,2.6,10.1c1.8,3.1,4.1,5.5,7.1,7.2s6.3,2.5,9.9,2.5
		c3.6,0,6.9-0.8,9.9-2.5s5.4-4.1,7.1-7.2c1.8-3.1,2.6-6.5,2.6-10.1c0-5.6-1.9-10.4-5.8-14.3C184.2,323.3,179.6,321.3,174.3,321.3"/>
	<rect x="211.5" y="297" class="st2" width="6.5" height="69.3"/>
	<path class="st2" d="M230.6,316.3h6.5v23.3c0,5.7,0.3,9.6,0.9,11.8c0.9,3.1,2.7,5.5,5.3,7.3s5.7,2.7,9.3,2.7s6.7-0.9,9.2-2.6
		s4.2-4,5.2-6.8c0.6-1.9,1-6,1-12.3v-23.3h6.6v24.5c0,6.9-0.8,12.1-2.4,15.6s-4.1,6.2-7.3,8.2c-3.2,2-7.3,3-12.2,3
		c-4.9,0-9-1-12.3-3s-5.7-4.7-7.3-8.3c-1.6-3.5-2.4-8.9-2.4-16v-24.1H230.6z"/>
	<path class="st2" d="M337.7,326.7l-5.1,3.2c-4.4-5.9-10.5-8.8-18.1-8.8c-6.1,0-11.2,2-15.3,5.9c-4,3.9-6.1,8.7-6.1,14.3
		c0,3.6,0.9,7.1,2.8,10.3c1.9,3.2,4.4,5.7,7.7,7.5c3.2,1.8,6.9,2.7,10.9,2.7c7.4,0,13.4-2.9,18.1-8.8l5.1,3.4
		c-2.4,3.6-5.6,6.4-9.7,8.4s-8.7,3-13.8,3c-7.9,0-14.5-2.5-19.8-7.5c-5.2-5-7.9-11.1-7.9-18.3c0-4.8,1.2-9.3,3.7-13.5
		c2.4-4.2,5.8-7.4,10.1-9.7c4.3-2.3,9.1-3.5,14.4-3.5c3.3,0,6.5,0.5,9.6,1.5s5.7,2.3,7.9,4C334.4,322.1,336.2,324.2,337.7,326.7"/>
	<path class="st2" d="M352.4,295.7c1.5,0,2.7,0.5,3.8,1.6c1,1,1.6,2.3,1.6,3.8c0,1.4-0.5,2.7-1.6,3.7c-1,1-2.3,1.6-3.8,1.6
		c-1.4,0-2.7-0.5-3.7-1.6c-1-1-1.6-2.3-1.6-3.7c0-1.5,0.5-2.7,1.6-3.8C349.7,296.3,351,295.7,352.4,295.7 M349.2,316.3h6.5v50h-6.5
		V316.3z"/>
	<path class="st2" d="M392.9,315c7.7,0,14.2,2.8,19.3,8.4c4.6,5.1,6.9,11.1,6.9,18.1s-2.4,13.1-7.3,18.3c-4.9,5.2-11.2,7.8-18.9,7.8
		c-7.7,0-14-2.6-18.9-7.8c-4.9-5.2-7.3-11.3-7.3-18.3c0-6.9,2.3-12.9,6.9-18C378.7,317.8,385.1,315,392.9,315 M392.9,321.3
		c-5.4,0-10,2-13.9,5.9c-3.9,4-5.8,8.7-5.8,14.3c0,3.6,0.9,7,2.6,10.1c1.8,3.1,4.1,5.5,7.1,7.2s6.3,2.5,9.9,2.5s6.9-0.8,9.9-2.5
		s5.4-4.1,7.1-7.2c1.8-3.1,2.6-6.5,2.6-10.1c0-5.6-1.9-10.4-5.8-14.3C402.8,323.3,398.2,321.3,392.9,321.3"/>
	<path class="st2" d="M431.1,316.3h6.5v9c2.6-3.4,5.5-6,8.6-7.7s6.6-2.6,10.3-2.6c3.8,0,7.1,1,10,2.8c2.9,1.9,5.1,4.5,6.4,7.7
		c1.4,3.2,2.1,8.2,2.1,15v25.7h-6.5v-23.9c0-5.8-0.2-9.6-0.7-11.5c-0.8-3.3-2.2-5.8-4.3-7.5c-2.1-1.7-4.9-2.5-8.3-2.5
		c-3.9,0-7.4,1.3-10.5,3.9s-5.1,5.8-6.1,9.6c-0.6,2.5-0.9,7-0.9,13.6v18.3h-6.5v-49.9H431.1z"/>
	<path class="st2" d="M531.1,349.7l5.5,2.8c-1.8,3.5-3.9,6.3-6.2,8.5c-2.3,2.1-5,3.8-7.9,4.9s-6.2,1.7-9.9,1.7
		c-8.2,0-14.6-2.7-19.2-8s-6.9-11.4-6.9-18.1c0-6.3,2-12,5.9-17c5-6.3,11.6-9.5,19.9-9.5c8.6,0,15.4,3.2,20.5,9.7
		c3.6,4.6,5.5,10.3,5.6,17.1H493c0.1,5.8,2,10.6,5.6,14.3c3.6,3.7,8.1,5.6,13.4,5.6c2.6,0,5-0.4,7.5-1.3c2.4-0.9,4.5-2.1,6.2-3.5
		C527.3,355.4,529.1,353,531.1,349.7 M531.1,336.3c-0.9-3.4-2.1-6.2-3.8-8.2c-1.6-2.1-3.8-3.7-6.5-5s-5.6-1.9-8.6-1.9
		c-4.9,0-9.2,1.6-12.7,4.7c-2.6,2.3-4.5,5.7-5.9,10.3h37.5V336.3z"/>
	<path class="st2" d="M575.5,321.8l-4.2,4.3c-3.5-3.3-6.8-5-10.1-5c-2.1,0-3.9,0.7-5.4,2.1s-2.2,3-2.2,4.8c0,1.6,0.6,3.2,1.9,4.6
		c1.2,1.5,3.8,3.3,7.8,5.3c4.8,2.5,8.1,4.9,9.8,7.2c1.7,2.3,2.5,4.9,2.5,7.9c0,4.1-1.4,7.6-4.4,10.4c-2.9,2.8-6.5,4.3-10.9,4.3
		c-2.9,0-5.7-0.6-8.3-1.9s-4.8-3-6.5-5.2l4.1-4.6c3.3,3.7,6.8,5.6,10.5,5.6c2.6,0,4.8-0.8,6.6-2.5s2.7-3.6,2.7-5.8
		c0-1.8-0.6-3.5-1.8-4.9s-3.9-3.2-8.2-5.3c-4.5-2.3-7.6-4.6-9.3-6.9c-1.6-2.3-2.5-4.9-2.5-7.8c0-3.8,1.3-7,3.9-9.5
		c2.6-2.5,5.9-3.8,9.9-3.8C566.2,315,570.9,317.3,575.5,321.8"/>
	<path class="st2" d="M252.1,79h6.6v7.3c2-2.9,4.1-5,6.2-6.5c2.2-1.4,4.5-2.1,6.8-2.1c1.8,0,3.7,0.6,5.7,1.7l-3.4,5.4
		c-1.4-0.6-2.5-0.9-3.4-0.9c-2.2,0-4.2,0.9-6.2,2.6s-3.5,4.5-4.6,8.2c-0.8,2.8-1.2,8.6-1.2,17.3v17H252V79H252.1z"/>
	<path class="st2" d="M333.1,79v50h-6.4v-8.6c-2.7,3.3-5.8,5.7-9.1,7.4c-3.4,1.7-7.1,2.5-11.1,2.5c-7.1,0-13.2-2.6-18.2-7.7
		s-7.6-11.4-7.6-18.7c0-7.2,2.5-13.4,7.6-18.5s11.2-7.7,18.3-7.7c4.1,0,7.9,0.9,11.2,2.6c3.3,1.7,6.3,4.4,8.8,7.9V79H333.1z
		 M307.2,83.9c-3.6,0-6.9,0.9-10,2.6c-3,1.8-5.5,4.2-7.3,7.4c-1.8,3.2-2.7,6.5-2.7,10.1c0,3.5,0.9,6.9,2.7,10.1
		c1.8,3.2,4.3,5.7,7.3,7.5c3.1,1.8,6.3,2.7,9.9,2.7c3.5,0,6.9-0.9,10.1-2.7c3.2-1.8,5.6-4.2,7.3-7.2c1.7-3,2.6-6.4,2.6-10.2
		c0-5.8-1.9-10.6-5.7-14.5C317.5,85.8,312.8,83.9,307.2,83.9 M311.2,55.5h9.9l-13.6,14.2h-6.4L311.2,55.5z"/>
	<path class="st2" d="M368.3,59.7V66c-2.4-1-4.4-1.5-6.1-1.5c-1.3,0-2.3,0.3-3.1,0.8c-0.8,0.5-1.4,1.1-1.6,1.7
		c-0.2,0.7-0.3,2.4-0.3,5.3v6.8h10.5v5.6h-10.5v44.4h-6.5V84.5h-6.6V79h6.6v-7.8c0-3.6,0.3-6.1,1-7.7c0.7-1.5,1.8-2.8,3.4-3.7
		s3.5-1.4,5.8-1.4C362.9,58.4,365.4,58.8,368.3,59.7"/>
	<path class="st2" d="M379.6,58.4c1.5,0,2.7,0.5,3.8,1.6c1,1,1.6,2.3,1.6,3.8c0,1.4-0.5,2.7-1.6,3.7c-1,1-2.3,1.6-3.8,1.6
		c-1.4,0-2.7-0.5-3.7-1.6c-1-1-1.6-2.3-1.6-3.7c0-1.5,0.5-2.7,1.6-3.8C376.9,58.9,378.1,58.4,379.6,58.4 M376.4,79h6.5v50h-6.5V79z"
		/>
	<path class="st2" d="M445.1,89.3l-5.1,3.2c-4.4-5.9-10.5-8.8-18.1-8.8c-6.1,0-11.2,2-15.3,5.9c-4,3.9-6.1,8.7-6.1,14.3
		c0,3.6,0.9,7.1,2.8,10.3c1.9,3.2,4.4,5.7,7.7,7.5c3.2,1.8,6.9,2.7,10.9,2.7c7.4,0,13.4-2.9,18.1-8.8l5.1,3.4
		c-2.4,3.6-5.6,6.4-9.7,8.4c-4.1,2-8.7,3-13.8,3c-7.9,0-14.5-2.5-19.8-7.5c-5.2-5-7.9-11.1-7.9-18.3c0-4.8,1.2-9.3,3.7-13.5
		c2.4-4.2,5.8-7.4,10.1-9.7c4.3-2.3,9.1-3.5,14.4-3.5c3.3,0,6.5,0.5,9.6,1.5s5.7,2.3,7.9,4S443.5,86.8,445.1,89.3"/>
	<path class="st2" d="M507.6,79v50h-6.4v-8.6c-2.7,3.3-5.8,5.7-9.1,7.4c-3.4,1.7-7.1,2.5-11.1,2.5c-7.1,0-13.2-2.6-18.2-7.7
		s-7.6-11.4-7.6-18.7c0-7.2,2.5-13.4,7.6-18.5s11.2-7.7,18.3-7.7c4.1,0,7.9,0.9,11.2,2.6c3.3,1.7,6.3,4.4,8.8,7.9V79H507.6z
		 M481.7,83.9c-3.6,0-6.9,0.9-10,2.6c-3,1.8-5.5,4.2-7.3,7.4c-1.8,3.2-2.7,6.5-2.7,10.1c0,3.5,0.9,6.9,2.7,10.1
		c1.8,3.2,4.3,5.7,7.3,7.5c3.1,1.8,6.3,2.7,9.9,2.7c3.5,0,6.9-0.9,10.1-2.7c3.2-1.8,5.6-4.2,7.3-7.2c1.7-3,2.6-6.4,2.6-10.2
		c0-5.8-1.9-10.6-5.7-14.5C492,85.8,487.3,83.9,481.7,83.9"/>
	<path class="st2" d="M547.4,84.4l-4.2,4.3c-3.5-3.3-6.8-5-10.1-5c-2.1,0-3.9,0.7-5.4,2.1s-2.2,3-2.2,4.8c0,1.6,0.6,3.2,1.9,4.6
		c1.2,1.5,3.8,3.3,7.8,5.3c4.8,2.5,8.1,4.9,9.8,7.2c1.7,2.3,2.5,4.9,2.5,7.9c0,4.1-1.4,7.6-4.4,10.4c-2.9,2.8-6.5,4.3-10.9,4.3
		c-2.9,0-5.7-0.6-8.3-1.9c-2.6-1.3-4.8-3-6.5-5.2l4.1-4.6c3.3,3.7,6.8,5.6,10.5,5.6c2.6,0,4.8-0.8,6.6-2.5s2.7-3.6,2.7-5.8
		c0-1.8-0.6-3.5-1.8-4.9s-3.9-3.2-8.2-5.3c-4.5-2.3-7.6-4.6-9.3-6.9c-1.6-2.3-2.5-4.9-2.5-7.8c0-3.8,1.3-7,3.9-9.5
		c2.6-2.5,5.9-3.8,9.9-3.8C538.1,77.7,542.7,79.9,547.4,84.4"/>
</g>
</svg>
